<svg width="16" height="16" viewBox="0 0 16 16" fill="none" xmlns="http://www.w3.org/2000/svg">
<rect width="16" height="16" rx="2.66667" fill="#101828"/>
<path d="M7.98908 7.78259C7.98914 7.3098 8.1746 6.85639 8.50466 6.52209C8.83472 6.1878 9.28236 6 9.7491 6H10.0037C10.2648 5.99707 10.5239 6.04664 10.766 6.14583C11.008 6.24503 11.2283 6.39188 11.4139 6.57788C11.5996 6.76388 11.747 6.98534 11.8476 7.22944C11.9482 7.47354 12 7.73542 12 7.99994C12 8.26445 11.9482 8.52634 11.8476 8.77044C11.747 9.01454 11.5996 9.236 11.4139 9.422C11.2283 9.608 11.008 9.75485 10.766 9.85404C10.5239 9.95324 10.2648 10.0028 10.0037 9.99988H9.7491C9.2824 9.99981 8.83483 9.81198 8.50482 9.4777C8.17481 9.14341 7.98938 8.69004 7.98932 8.21728L7.98908 7.78259Z" fill="#00B6FF"/>
<path d="M4 12.0002C4 11.4697 4.20802 10.961 4.57831 10.5859C4.94859 10.2108 5.45081 10.0001 5.97447 10.0001H7.98908V11.9796C7.98908 13.0956 7.08609 14 5.98438 14C4.89404 14 4 13.1047 4 12.0002Z" fill="#24CB71"/>
<path d="M7.98908 2.00012V6H10.0037C10.2648 6.00293 10.5239 5.95336 10.766 5.85417C11.008 5.75497 11.2283 5.60812 11.4139 5.42212C11.5996 5.23612 11.747 5.01466 11.8476 4.77056C11.9482 4.52646 12 4.26458 12 4.00006C12 3.73555 11.9482 3.47366 11.8476 3.22956C11.747 2.98546 11.5996 2.764 11.4139 2.578C11.2283 2.392 11.008 2.24515 10.766 2.14596C10.5239 2.04676 10.2648 1.9972 10.0037 2.00012H7.98908Z" fill="#FF7237"/>
<path d="M4 3.99994C4 4.53039 4.20802 5.03911 4.57831 5.4142C4.94859 5.78928 5.45081 6 5.97447 6H7.98908V2.00012H5.97447C5.45085 2.00012 4.94867 2.21081 4.57839 2.58584C4.20812 2.96087 4.00006 3.46953 4 3.99994Z" fill="#FF3737"/>
<path d="M4 8.00006C4 8.53051 4.20802 9.03923 4.57831 9.41432C4.94859 9.7894 5.45081 10.0001 5.97447 10.0001H7.98908V6H5.97447C5.45085 6 4.94867 6.21093 4.57839 6.58596C4.20812 6.96099 4.00006 7.46965 4 8.00006Z" fill="#874FFF"/>
</svg>
