<svg width="16" height="16" viewBox="0 0 16 16" fill="none" xmlns="http://www.w3.org/2000/svg">
<path fill-rule="evenodd" clip-rule="evenodd" d="M2 2.44552C2.00055 2.54829 2.02137 2.64994 2.06127 2.74467C2.10117 2.83941 2.15937 2.92537 2.23254 2.99764C2.30572 3.06992 2.39244 3.1271 2.48775 3.16592C2.58306 3.20474 2.68509 3.22443 2.78802 3.22388H9.31917C11.4752 3.07807 12.797 5.8233 11.1579 7.27826C10.6767 7.68947 10.0638 7.89472 9.31917 7.89402H6.48228C6.37742 7.89018 6.27286 7.90748 6.17485 7.9449C6.07684 7.98231 5.98739 8.03906 5.91185 8.11177C5.8363 8.18447 5.77621 8.27164 5.73517 8.36805C5.69413 8.46446 5.67298 8.56815 5.67298 8.67291C5.67298 8.77767 5.69413 8.88135 5.73517 8.97777C5.77621 9.07418 5.8363 9.16134 5.91185 9.23405C5.98739 9.30675 6.07684 9.36351 6.17485 9.40092C6.27286 9.43833 6.37742 9.45563 6.48228 9.45179C6.58105 9.45179 9.64173 9.45179 9.61652 9.45179L12.4397 13.9268C12.5152 14.0536 12.6231 14.158 12.7524 14.2293C12.8816 14.3007 13.0276 14.3364 13.1752 14.3328C13.895 14.3569 14.2259 13.6111 13.8319 13.0352L11.3207 9.04897C15.2399 7.21217 13.584 1.50247 9.31707 1.67031H2.78802C2.58077 1.66947 2.38159 1.7505 2.23395 1.89574C2.08632 2.04097 2.00222 2.23861 2 2.44552Z" fill="#f6f6f9"/>
</svg>
